<?xml version="1.0" encoding="UTF-8" standalone="no"?>
<!DOCTYPE svg PUBLIC "-//W3C//DTD SVG 1.1//EN"
 "http://www.w3.org/Graphics/SVG/1.1/DTD/svg11.dtd">
<!-- Generated by graphviz version 2.40.1 (20161225.0304)
 -->
<!-- Title: G Pages: 1 -->
<svg width="729pt" height="3397pt"
 viewBox="0.00 0.00 728.93 3397.05" xmlns="http://www.w3.org/2000/svg" xmlns:xlink="http://www.w3.org/1999/xlink">
<g id="graph0" class="graph" transform="scale(1 1) rotate(0) translate(4 3393.0498)">
<title>G</title>
<polygon fill="#ffffff" stroke="transparent" points="-4,4 -4,-3393.0498 724.9284,-3393.0498 724.9284,4 -4,4"/>
<g id="clust1" class="cluster">
<title>cluster_Global</title>
<path fill="none" stroke="#c0c0c0" d="M20,-82.0498C20,-82.0498 700.9284,-82.0498 700.9284,-82.0498 706.9284,-82.0498 712.9284,-88.0498 712.9284,-94.0498 712.9284,-94.0498 712.9284,-3369.0498 712.9284,-3369.0498 712.9284,-3375.0498 706.9284,-3381.0498 700.9284,-3381.0498 700.9284,-3381.0498 20,-3381.0498 20,-3381.0498 14,-3381.0498 8,-3375.0498 8,-3369.0498 8,-3369.0498 8,-94.0498 8,-94.0498 8,-88.0498 14,-82.0498 20,-82.0498"/>
<text text-anchor="middle" x="360.4642" y="-3368.2498" font-family="Times,serif" font-size="11.00" fill="#c0c0c0">Global</text>
</g>
<g id="clust2" class="cluster">
<title>cluster_\PlayerLync</title>
<path fill="none" stroke="#c0c0c0" d="M171.6618,-2016.0498C171.6618,-2016.0498 692.9284,-2016.0498 692.9284,-2016.0498 698.9284,-2016.0498 704.9284,-2022.0498 704.9284,-2028.0498 704.9284,-2028.0498 704.9284,-3342.0498 704.9284,-3342.0498 704.9284,-3348.0498 698.9284,-3354.0498 692.9284,-3354.0498 692.9284,-3354.0498 171.6618,-3354.0498 171.6618,-3354.0498 165.6618,-3354.0498 159.6618,-3348.0498 159.6618,-3342.0498 159.6618,-3342.0498 159.6618,-2028.0498 159.6618,-2028.0498 159.6618,-2022.0498 165.6618,-2016.0498 171.6618,-2016.0498"/>
<text text-anchor="middle" x="432.2951" y="-3341.2498" font-family="Times,serif" font-size="11.00" fill="#c0c0c0">PlayerLync</text>
</g>
<g id="clust3" class="cluster">
<title>cluster_\PlayerLync\Authentication</title>
<path fill="none" stroke="#c0c0c0" d="M520.4042,-3167.0498C520.4042,-3167.0498 623.6171,-3167.0498 623.6171,-3167.0498 629.6171,-3167.0498 635.6171,-3173.0498 635.6171,-3179.0498 635.6171,-3179.0498 635.6171,-3315.0498 635.6171,-3315.0498 635.6171,-3321.0498 629.6171,-3327.0498 623.6171,-3327.0498 623.6171,-3327.0498 520.4042,-3327.0498 520.4042,-3327.0498 514.4042,-3327.0498 508.4042,-3321.0498 508.4042,-3315.0498 508.4042,-3315.0498 508.4042,-3179.0498 508.4042,-3179.0498 508.4042,-3173.0498 514.4042,-3167.0498 520.4042,-3167.0498"/>
<text text-anchor="middle" x="572.0107" y="-3314.2498" font-family="Times,serif" font-size="11.00" fill="#c0c0c0">Authentication</text>
</g>
<g id="clust4" class="cluster">
<title>cluster_\PlayerLync\Authentication\Oauth2</title>
<path fill="none" stroke="#c0c0c0" d="M528.4042,-3175.0498C528.4042,-3175.0498 615.6171,-3175.0498 615.6171,-3175.0498 621.6171,-3175.0498 627.6171,-3181.0498 627.6171,-3187.0498 627.6171,-3187.0498 627.6171,-3288.0498 627.6171,-3288.0498 627.6171,-3294.0498 621.6171,-3300.0498 615.6171,-3300.0498 615.6171,-3300.0498 528.4042,-3300.0498 528.4042,-3300.0498 522.4042,-3300.0498 516.4042,-3294.0498 516.4042,-3288.0498 516.4042,-3288.0498 516.4042,-3187.0498 516.4042,-3187.0498 516.4042,-3181.0498 522.4042,-3175.0498 528.4042,-3175.0498"/>
<text text-anchor="middle" x="572.0107" y="-3287.2498" font-family="Times,serif" font-size="11.00" fill="#c0c0c0">Oauth2</text>
</g>
<g id="clust5" class="cluster">
<title>cluster_\PlayerLync\Exceptions</title>
<path fill="none" stroke="#c0c0c0" d="M202.7656,-2872.0498C202.7656,-2872.0498 684.9284,-2872.0498 684.9284,-2872.0498 690.9284,-2872.0498 696.9284,-2878.0498 696.9284,-2884.0498 696.9284,-2884.0498 696.9284,-3147.0498 696.9284,-3147.0498 696.9284,-3153.0498 690.9284,-3159.0498 684.9284,-3159.0498 684.9284,-3159.0498 202.7656,-3159.0498 202.7656,-3159.0498 196.7656,-3159.0498 190.7656,-3153.0498 190.7656,-3147.0498 190.7656,-3147.0498 190.7656,-2884.0498 190.7656,-2884.0498 190.7656,-2878.0498 196.7656,-2872.0498 202.7656,-2872.0498"/>
<text text-anchor="middle" x="443.847" y="-3146.2498" font-family="Times,serif" font-size="11.00" fill="#c0c0c0">Exceptions</text>
</g>
<g id="clust6" class="cluster">
<title>cluster_\PlayerLync\HttpClients</title>
<path fill="none" stroke="#c0c0c0" d="M179.6618,-2739.0498C179.6618,-2739.0498 655.2236,-2739.0498 655.2236,-2739.0498 661.2236,-2739.0498 667.2236,-2745.0498 667.2236,-2751.0498 667.2236,-2751.0498 667.2236,-2852.0498 667.2236,-2852.0498 667.2236,-2858.0498 661.2236,-2864.0498 655.2236,-2864.0498 655.2236,-2864.0498 179.6618,-2864.0498 179.6618,-2864.0498 173.6618,-2864.0498 167.6618,-2858.0498 167.6618,-2852.0498 167.6618,-2852.0498 167.6618,-2751.0498 167.6618,-2751.0498 167.6618,-2745.0498 173.6618,-2739.0498 179.6618,-2739.0498"/>
<text text-anchor="middle" x="417.4427" y="-2851.2498" font-family="Times,serif" font-size="11.00" fill="#c0c0c0">HttpClients</text>
</g>
<g id="clust7" class="cluster">
<title>cluster_\PlayerLync\Http</title>
<path fill="none" stroke="#c0c0c0" d="M209.3666,-2498.0498C209.3666,-2498.0498 648.6225,-2498.0498 648.6225,-2498.0498 654.6225,-2498.0498 660.6225,-2504.0498 660.6225,-2510.0498 660.6225,-2510.0498 660.6225,-2719.0498 660.6225,-2719.0498 660.6225,-2725.0498 654.6225,-2731.0498 648.6225,-2731.0498 648.6225,-2731.0498 209.3666,-2731.0498 209.3666,-2731.0498 203.3666,-2731.0498 197.3666,-2725.0498 197.3666,-2719.0498 197.3666,-2719.0498 197.3666,-2510.0498 197.3666,-2510.0498 197.3666,-2504.0498 203.3666,-2498.0498 209.3666,-2498.0498"/>
<text text-anchor="middle" x="428.9946" y="-2718.2498" font-family="Times,serif" font-size="11.00" fill="#c0c0c0">Http</text>
</g>
<g id="clust8" class="cluster">
<title>cluster_\PlayerLync\Url</title>
<path fill="none" stroke="#c0c0c0" d="M488.7978,-2419.0498C488.7978,-2419.0498 655.2236,-2419.0498 655.2236,-2419.0498 661.2236,-2419.0498 667.2236,-2425.0498 667.2236,-2431.0498 667.2236,-2431.0498 667.2236,-2478.0498 667.2236,-2478.0498 667.2236,-2484.0498 661.2236,-2490.0498 655.2236,-2490.0498 655.2236,-2490.0498 488.7978,-2490.0498 488.7978,-2490.0498 482.7978,-2490.0498 476.7978,-2484.0498 476.7978,-2478.0498 476.7978,-2478.0498 476.7978,-2431.0498 476.7978,-2431.0498 476.7978,-2425.0498 482.7978,-2419.0498 488.7978,-2419.0498"/>
<text text-anchor="middle" x="572.0107" y="-2477.2498" font-family="Times,serif" font-size="11.00" fill="#c0c0c0">Url</text>
</g>
<g id="clust9" class="cluster">
<title>cluster_\PlayerLync\FileUpload</title>
<path fill="none" stroke="#c0c0c0" d="M229.1699,-2286.0498C229.1699,-2286.0498 625.5187,-2286.0498 625.5187,-2286.0498 631.5187,-2286.0498 637.5187,-2292.0498 637.5187,-2298.0498 637.5187,-2298.0498 637.5187,-2399.0498 637.5187,-2399.0498 637.5187,-2405.0498 631.5187,-2411.0498 625.5187,-2411.0498 625.5187,-2411.0498 229.1699,-2411.0498 229.1699,-2411.0498 223.1699,-2411.0498 217.1699,-2405.0498 217.1699,-2399.0498 217.1699,-2399.0498 217.1699,-2298.0498 217.1699,-2298.0498 217.1699,-2292.0498 223.1699,-2286.0498 229.1699,-2286.0498"/>
<text text-anchor="middle" x="427.3443" y="-2398.2498" font-family="Times,serif" font-size="11.00" fill="#c0c0c0">FileUpload</text>
</g>
<g id="clust10" class="cluster">
<title>cluster_\PlMigration</title>
<path fill="none" stroke="#c0c0c0" d="M28,-90.0498C28,-90.0498 667.923,-90.0498 667.923,-90.0498 673.923,-90.0498 679.923,-96.0498 679.923,-102.0498 679.923,-102.0498 679.923,-1996.0498 679.923,-1996.0498 679.923,-2002.0498 673.923,-2008.0498 667.923,-2008.0498 667.923,-2008.0498 28,-2008.0498 28,-2008.0498 22,-2008.0498 16,-2002.0498 16,-1996.0498 16,-1996.0498 16,-102.0498 16,-102.0498 16,-96.0498 22,-90.0498 28,-90.0498"/>
<text text-anchor="middle" x="347.9615" y="-1995.2498" font-family="Times,serif" font-size="11.00" fill="#c0c0c0">PlMigration</text>
</g>
<g id="clust11" class="cluster">
<title>cluster_\PlMigration\Builder</title>
<path fill="none" stroke="#c0c0c0" d="M219.2683,-1480.0498C219.2683,-1480.0498 650.0214,-1480.0498 650.0214,-1480.0498 656.0214,-1480.0498 662.0214,-1486.0498 662.0214,-1492.0498 662.0214,-1492.0498 662.0214,-1969.0498 662.0214,-1969.0498 662.0214,-1975.0498 656.0214,-1981.0498 650.0214,-1981.0498 650.0214,-1981.0498 219.2683,-1981.0498 219.2683,-1981.0498 213.2683,-1981.0498 207.2683,-1975.0498 207.2683,-1969.0498 207.2683,-1969.0498 207.2683,-1492.0498 207.2683,-1492.0498 207.2683,-1486.0498 213.2683,-1480.0498 219.2683,-1480.0498"/>
<text text-anchor="middle" x="434.6448" y="-1968.2498" font-family="Times,serif" font-size="11.00" fill="#c0c0c0">Builder</text>
</g>
<g id="clust12" class="cluster">
<title>cluster_\PlMigration\Builder\Traits</title>
<path fill="none" stroke="#c0c0c0" d="M501.9999,-1775.0498C501.9999,-1775.0498 642.0214,-1775.0498 642.0214,-1775.0498 648.0214,-1775.0498 654.0214,-1781.0498 654.0214,-1787.0498 654.0214,-1787.0498 654.0214,-1942.0498 654.0214,-1942.0498 654.0214,-1948.0498 648.0214,-1954.0498 642.0214,-1954.0498 642.0214,-1954.0498 501.9999,-1954.0498 501.9999,-1954.0498 495.9999,-1954.0498 489.9999,-1948.0498 489.9999,-1942.0498 489.9999,-1942.0498 489.9999,-1787.0498 489.9999,-1787.0498 489.9999,-1781.0498 495.9999,-1775.0498 501.9999,-1775.0498"/>
<text text-anchor="middle" x="572.0107" y="-1941.2498" font-family="Times,serif" font-size="11.00" fill="#c0c0c0">Traits</text>
</g>
<g id="clust13" class="cluster">
<title>cluster_\PlMigration\Builder\Helper</title>
<path fill="none" stroke="#c0c0c0" d="M535.0053,-1696.0498C535.0053,-1696.0498 609.0161,-1696.0498 609.0161,-1696.0498 615.0161,-1696.0498 621.0161,-1702.0498 621.0161,-1708.0498 621.0161,-1708.0498 621.0161,-1755.0498 621.0161,-1755.0498 621.0161,-1761.0498 615.0161,-1767.0498 609.0161,-1767.0498 609.0161,-1767.0498 535.0053,-1767.0498 535.0053,-1767.0498 529.0053,-1767.0498 523.0053,-1761.0498 523.0053,-1755.0498 523.0053,-1755.0498 523.0053,-1708.0498 523.0053,-1708.0498 523.0053,-1702.0498 529.0053,-1696.0498 535.0053,-1696.0498"/>
<text text-anchor="middle" x="572.0107" y="-1754.2498" font-family="Times,serif" font-size="11.00" fill="#c0c0c0">Helper</text>
</g>
<g id="clust14" class="cluster">
<title>cluster_\PlMigration\Writer</title>
<path fill="none" stroke="#c0c0c0" d="M252.2736,-1347.0498C252.2736,-1347.0498 632.1198,-1347.0498 632.1198,-1347.0498 638.1198,-1347.0498 644.1198,-1353.0498 644.1198,-1359.0498 644.1198,-1359.0498 644.1198,-1460.0498 644.1198,-1460.0498 644.1198,-1466.0498 638.1198,-1472.0498 632.1198,-1472.0498 632.1198,-1472.0498 252.2736,-1472.0498 252.2736,-1472.0498 246.2736,-1472.0498 240.2736,-1466.0498 240.2736,-1460.0498 240.2736,-1460.0498 240.2736,-1359.0498 240.2736,-1359.0498 240.2736,-1353.0498 246.2736,-1347.0498 252.2736,-1347.0498"/>
<text text-anchor="middle" x="442.1967" y="-1459.2498" font-family="Times,serif" font-size="11.00" fill="#c0c0c0">Writer</text>
</g>
<g id="clust15" class="cluster">
<title>cluster_\PlMigration\Model</title>
<path fill="none" stroke="#c0c0c0" d="M531.7048,-1106.0498C531.7048,-1106.0498 612.3166,-1106.0498 612.3166,-1106.0498 618.3166,-1106.0498 624.3166,-1112.0498 624.3166,-1118.0498 624.3166,-1118.0498 624.3166,-1327.0498 624.3166,-1327.0498 624.3166,-1333.0498 618.3166,-1339.0498 612.3166,-1339.0498 612.3166,-1339.0498 531.7048,-1339.0498 531.7048,-1339.0498 525.7048,-1339.0498 519.7048,-1333.0498 519.7048,-1327.0498 519.7048,-1327.0498 519.7048,-1118.0498 519.7048,-1118.0498 519.7048,-1112.0498 525.7048,-1106.0498 531.7048,-1106.0498"/>
<text text-anchor="middle" x="572.0107" y="-1326.2498" font-family="Times,serif" font-size="11.00" fill="#c0c0c0">Model</text>
</g>
<g id="clust16" class="cluster">
<title>cluster_\PlMigration\Connectors</title>
<path fill="none" stroke="#c0c0c0" d="M242.372,-1027.0498C242.372,-1027.0498 615.6171,-1027.0498 615.6171,-1027.0498 621.6171,-1027.0498 627.6171,-1033.0498 627.6171,-1039.0498 627.6171,-1039.0498 627.6171,-1086.0498 627.6171,-1086.0498 627.6171,-1092.0498 621.6171,-1098.0498 615.6171,-1098.0498 615.6171,-1098.0498 242.372,-1098.0498 242.372,-1098.0498 236.372,-1098.0498 230.372,-1092.0498 230.372,-1086.0498 230.372,-1086.0498 230.372,-1039.0498 230.372,-1039.0498 230.372,-1033.0498 236.372,-1027.0498 242.372,-1027.0498"/>
<text text-anchor="middle" x="428.9946" y="-1085.2498" font-family="Times,serif" font-size="11.00" fill="#c0c0c0">Connectors</text>
</g>
<g id="clust17" class="cluster">
<title>cluster_\PlMigration\Reader</title>
<path fill="none" stroke="#c0c0c0" d="M252.2736,-948.0498C252.2736,-948.0498 605.7155,-948.0498 605.7155,-948.0498 611.7155,-948.0498 617.7155,-954.0498 617.7155,-960.0498 617.7155,-960.0498 617.7155,-1007.0498 617.7155,-1007.0498 617.7155,-1013.0498 611.7155,-1019.0498 605.7155,-1019.0498 605.7155,-1019.0498 252.2736,-1019.0498 252.2736,-1019.0498 246.2736,-1019.0498 240.2736,-1013.0498 240.2736,-1007.0498 240.2736,-1007.0498 240.2736,-960.0498 240.2736,-960.0498 240.2736,-954.0498 246.2736,-948.0498 252.2736,-948.0498"/>
<text text-anchor="middle" x="428.9946" y="-1006.2498" font-family="Times,serif" font-size="11.00" fill="#c0c0c0">Reader</text>
</g>
<g id="clust18" class="cluster">
<title>cluster_\PlMigration\Client</title>
<path fill="none" stroke="#c0c0c0" d="M36,-815.0498C36,-815.0498 609.0161,-815.0498 609.0161,-815.0498 615.0161,-815.0498 621.0161,-821.0498 621.0161,-827.0498 621.0161,-827.0498 621.0161,-928.0498 621.0161,-928.0498 621.0161,-934.0498 615.0161,-940.0498 609.0161,-940.0498 609.0161,-940.0498 36,-940.0498 36,-940.0498 30,-940.0498 24,-934.0498 24,-928.0498 24,-928.0498 24,-827.0498 24,-827.0498 24,-821.0498 30,-815.0498 36,-815.0498"/>
<text text-anchor="middle" x="322.508" y="-927.2498" font-family="Times,serif" font-size="11.00" fill="#c0c0c0">Client</text>
</g>
<g id="clust19" class="cluster">
<title>cluster_\PlMigration\Exceptions</title>
<path fill="none" stroke="#c0c0c0" d="M508.601,-98.0498C508.601,-98.0498 635.4204,-98.0498 635.4204,-98.0498 641.4204,-98.0498 647.4204,-104.0498 647.4204,-110.0498 647.4204,-110.0498 647.4204,-481.0498 647.4204,-481.0498 647.4204,-487.0498 641.4204,-493.0498 635.4204,-493.0498 635.4204,-493.0498 508.601,-493.0498 508.601,-493.0498 502.601,-493.0498 496.601,-487.0498 496.601,-481.0498 496.601,-481.0498 496.601,-110.0498 496.601,-110.0498 496.601,-104.0498 502.601,-98.0498 508.601,-98.0498"/>
<text text-anchor="middle" x="572.0107" y="-480.2498" font-family="Times,serif" font-size="11.00" fill="#c0c0c0">Exceptions</text>
</g>
<g id="clust20" class="cluster">
<title>cluster_\PlMigration\Helper</title>
<path fill="none" stroke="#c0c0c0" d="M211.2683,-601.0498C211.2683,-601.0498 659.923,-601.0498 659.923,-601.0498 665.923,-601.0498 671.923,-607.0498 671.923,-613.0498 671.923,-613.0498 671.923,-795.0498 671.923,-795.0498 671.923,-801.0498 665.923,-807.0498 659.923,-807.0498 659.923,-807.0498 211.2683,-807.0498 211.2683,-807.0498 205.2683,-807.0498 199.2683,-801.0498 199.2683,-795.0498 199.2683,-795.0498 199.2683,-613.0498 199.2683,-613.0498 199.2683,-607.0498 205.2683,-601.0498 211.2683,-601.0498"/>
<text text-anchor="middle" x="435.5956" y="-794.2498" font-family="Times,serif" font-size="11.00" fill="#c0c0c0">Helper</text>
</g>
<g id="clust21" class="cluster">
<title>cluster_\PlMigration\Helper\DataFunctions</title>
<path fill="none" stroke="#c0c0c0" d="M219.2683,-709.0498C219.2683,-709.0498 651.923,-709.0498 651.923,-709.0498 657.923,-709.0498 663.923,-715.0498 663.923,-721.0498 663.923,-721.0498 663.923,-768.0498 663.923,-768.0498 663.923,-774.0498 657.923,-780.0498 651.923,-780.0498 651.923,-780.0498 219.2683,-780.0498 219.2683,-780.0498 213.2683,-780.0498 207.2683,-774.0498 207.2683,-768.0498 207.2683,-768.0498 207.2683,-721.0498 207.2683,-721.0498 207.2683,-715.0498 213.2683,-709.0498 219.2683,-709.0498"/>
<text text-anchor="middle" x="435.5956" y="-767.2498" font-family="Times,serif" font-size="11.00" fill="#c0c0c0">DataFunctions</text>
</g>
<!-- \\PlayerLync\\Authentication\\Oauth2\\AccessToken -->
<g id="node1" class="node">
<title>\\PlayerLync\\Authentication\\Oauth2\\AccessToken</title>
<polygon fill="none" stroke="#000000" points="616.1234,-3273.0498 527.898,-3273.0498 527.898,-3237.0498 616.1234,-3237.0498 616.1234,-3273.0498"/>
<text text-anchor="middle" x="572.0107" y="-3251.7498" font-family="Courier,monospace" font-size="11.00" fill="#000000">AccessToken</text>
</g>
<!-- \\PlayerLync\\Authentication\\Oauth2\\OAuth2Client -->
<g id="node2" class="node">
<title>\\PlayerLync\\Authentication\\Oauth2\\OAuth2Client</title>
<polygon fill="none" stroke="#000000" points="619.7238,-3219.0498 524.2976,-3219.0498 524.2976,-3183.0498 619.7238,-3183.0498 619.7238,-3219.0498"/>
<text text-anchor="middle" x="572.0107" y="-3197.7498" font-family="Courier,monospace" font-size="11.00" fill="#000000">OAuth2Client</text>
</g>
<!-- \\PlayerLync\\Exceptions\\PlayerLyncClientException -->
<g id="node3" class="node">
<title>\\PlayerLync\\Exceptions\\PlayerLyncClientException</title>
<polygon fill="none" stroke="#000000" points="662.5375,-3132.0498 481.4838,-3132.0498 481.4838,-3096.0498 662.5375,-3096.0498 662.5375,-3132.0498"/>
<text text-anchor="middle" x="572.0107" y="-3110.7498" font-family="Courier,monospace" font-size="11.00" fill="#000000">PlayerLyncClientException</text>
</g>
<!-- \\PlayerLync\\Exceptions\\PlayerLyncSDKException -->
<g id="node4" class="node">
<title>\\PlayerLync\\Exceptions\\PlayerLyncSDKException</title>
<polygon fill="none" stroke="#000000" points="360.1012,-2997.0498 198.6536,-2997.0498 198.6536,-2961.0498 360.1012,-2961.0498 360.1012,-2997.0498"/>
<text text-anchor="middle" x="279.3774" y="-2975.7498" font-family="Courier,monospace" font-size="11.00" fill="#000000">PlayerLyncSDKException</text>
</g>
<!-- \\PlayerLync\\Exceptions\\PlayerLyncClientException&#45;&gt;\\PlayerLync\\Exceptions\\PlayerLyncSDKException -->
<g id="edge3" class="edge">
<title>\\PlayerLync\\Exceptions\\PlayerLyncClientException&#45;&gt;\\PlayerLync\\Exceptions\\PlayerLyncSDKException</title>
<path fill="none" stroke="#000000" d="M481.4056,-3096.2286C472.3891,-3093.5357 463.4779,-3090.487 455.093,-3087.0498 401.3362,-3065.0138 345.1374,-3027.5278 311.1855,-3003.0275"/>
<polygon fill="none" stroke="#000000" points="313.1907,-3000.158 303.048,-2997.0957 309.0673,-3005.8146 313.1907,-3000.158"/>
</g>
<!-- \\Exception -->
<g id="node65" class="node">
<title>\\Exception</title>
<ellipse fill="none" stroke="#000000" cx="63.1038" cy="-33.0498" rx="40.6162" ry="18"/>
<text text-anchor="middle" x="63.1038" y="-28.8498" font-family="Times,serif" font-size="14.00" fill="#c0c0c0">xception</text>
</g>
<!-- \\PlayerLync\\Exceptions\\PlayerLyncSDKException&#45;&gt;\\Exception -->
<g id="edge9" class="edge">
<title>\\PlayerLync\\Exceptions\\PlayerLyncSDKException&#45;&gt;\\Exception</title>
<path fill="none" stroke="#000000" d="M248.8462,-2960.9997C219.9301,-2941.9795 178.251,-2909.103 159.6618,-2868.0498 112.5058,-2763.9086 108.1935,-925.2801 103.6618,-811.0498 92.0226,-517.6604 70.9577,-162.3913 64.8232,-61.1724"/>
<polygon fill="none" stroke="#000000" points="68.3134,-60.9044 64.2132,-51.1352 61.3263,-61.3291 68.3134,-60.9044"/>
</g>
<!-- \\PlayerLync\\Exceptions\\PlayerLyncServerException -->
<g id="node5" class="node">
<title>\\PlayerLync\\Exceptions\\PlayerLyncServerException</title>
<polygon fill="none" stroke="#000000" points="662.5375,-3078.0498 481.4838,-3078.0498 481.4838,-3042.0498 662.5375,-3042.0498 662.5375,-3078.0498"/>
<text text-anchor="middle" x="572.0107" y="-3056.7498" font-family="Courier,monospace" font-size="11.00" fill="#000000">PlayerLyncServerException</text>
</g>
<!-- \\PlayerLync\\Exceptions\\PlayerLyncServerException&#45;&gt;\\PlayerLync\\Exceptions\\PlayerLyncSDKException -->
<g id="edge10" class="edge">
<title>\\PlayerLync\\Exceptions\\PlayerLyncServerException&#45;&gt;\\PlayerLync\\Exceptions\\PlayerLyncSDKException</title>
<path fill="none" stroke="#000000" d="M490.3739,-3041.9807C478.5045,-3039.1264 466.4599,-3036.1048 455.093,-3033.0498 418.065,-3023.0983 377.0915,-3010.5942 344.0309,-3000.1251"/>
<polygon fill="none" stroke="#000000" points="345.0735,-2996.784 334.4831,-2997.0887 342.952,-3003.4548 345.0735,-2996.784"/>
</g>
<!-- \\PlayerLync\\Exceptions\\PlayerLyncResponseException -->
<g id="node6" class="node">
<title>\\PlayerLync\\Exceptions\\PlayerLyncResponseException</title>
<polygon fill="none" stroke="#000000" points="669.2398,-3024.0498 474.7815,-3024.0498 474.7815,-2988.0498 669.2398,-2988.0498 669.2398,-3024.0498"/>
<text text-anchor="middle" x="572.0107" y="-3002.7498" font-family="Courier,monospace" font-size="11.00" fill="#000000">PlayerLyncResponseException</text>
</g>
<!-- \\PlayerLync\\Exceptions\\PlayerLyncResponseException&#45;&gt;\\PlayerLync\\Exceptions\\PlayerLyncSDKException -->
<g id="edge13" class="edge">
<title>\\PlayerLync\\Exceptions\\PlayerLyncResponseException&#45;&gt;\\PlayerLync\\Exceptions\\PlayerLyncSDKException</title>
<path fill="none" stroke="#000000" d="M474.568,-2997.0592C440.9671,-2993.959 403.4811,-2990.5004 370.4121,-2987.4492"/>
<polygon fill="none" stroke="#000000" points="370.5796,-2983.9499 360.3003,-2986.5162 369.9364,-2990.9203 370.5796,-2983.9499"/>
</g>
<!-- \\PlayerLync\\Exceptions\\PlayerLyncAuthenticationException -->
<g id="node7" class="node">
<title>\\PlayerLync\\Exceptions\\PlayerLyncAuthenticationException</title>
<polygon fill="none" stroke="#000000" points="688.8462,-2970.0498 455.1752,-2970.0498 455.1752,-2934.0498 688.8462,-2934.0498 688.8462,-2970.0498"/>
<text text-anchor="middle" x="572.0107" y="-2948.7498" font-family="Courier,monospace" font-size="11.00" fill="#000000">PlayerLyncAuthenticationException</text>
</g>
<!-- \\PlayerLync\\Exceptions\\PlayerLyncAuthenticationException&#45;&gt;\\PlayerLync\\Exceptions\\PlayerLyncSDKException -->
<g id="edge22" class="edge">
<title>\\PlayerLync\\Exceptions\\PlayerLyncAuthenticationException&#45;&gt;\\PlayerLync\\Exceptions\\PlayerLyncSDKException</title>
<path fill="none" stroke="#000000" d="M455.0927,-2962.8374C426.8597,-2965.4423 397.1037,-2968.1878 370.2668,-2970.6639"/>
<polygon fill="none" stroke="#000000" points="369.7697,-2967.1948 360.1335,-2971.5988 370.4128,-2974.1652 369.7697,-2967.1948"/>
</g>
<!-- \\PlayerLync\\Exceptions\\PlayerLyncOtherException -->
<g id="node8" class="node">
<title>\\PlayerLync\\Exceptions\\PlayerLyncOtherException</title>
<polygon fill="none" stroke="#000000" points="659.437,-2916.0498 484.5844,-2916.0498 484.5844,-2880.0498 659.437,-2880.0498 659.437,-2916.0498"/>
<text text-anchor="middle" x="572.0107" y="-2894.7498" font-family="Courier,monospace" font-size="11.00" fill="#000000">PlayerLyncOtherException</text>
</g>
<!-- \\PlayerLync\\Exceptions\\PlayerLyncOtherException&#45;&gt;\\PlayerLync\\Exceptions\\PlayerLyncSDKException -->
<g id="edge27" class="edge">
<title>\\PlayerLync\\Exceptions\\PlayerLyncOtherException&#45;&gt;\\PlayerLync\\Exceptions\\PlayerLyncSDKException</title>
<path fill="none" stroke="#000000" d="M490.3739,-2916.119C478.5045,-2918.9732 466.4599,-2921.9949 455.093,-2925.0498 418.065,-2935.0014 377.0915,-2947.5055 344.0309,-2957.9746"/>
<polygon fill="none" stroke="#000000" points="342.952,-2954.6449 334.4831,-2961.011 345.0735,-2961.3157 342.952,-2954.6449"/>
</g>
<!-- \\PlayerLync\\HttpClients\\PlayerLyncCurl -->
<g id="node9" class="node">
<title>\\PlayerLync\\HttpClients\\PlayerLyncCurl</title>
<polygon fill="none" stroke="#000000" points="626.4265,-2837.0498 517.5949,-2837.0498 517.5949,-2801.0498 626.4265,-2801.0498 626.4265,-2837.0498"/>
<text text-anchor="middle" x="572.0107" y="-2815.7498" font-family="Courier,monospace" font-size="11.00" fill="#000000">PlayerLyncCurl</text>
</g>
<!-- \\PlayerLync\\HttpClients\\PlayerLyncCurlHttpClient -->
<g id="node10" class="node">
<title>\\PlayerLync\\HttpClients\\PlayerLyncCurlHttpClient</title>
<polygon fill="none" stroke="#000000" points="659.437,-2783.0498 484.5844,-2783.0498 484.5844,-2747.0498 659.437,-2747.0498 659.437,-2783.0498"/>
<text text-anchor="middle" x="572.0107" y="-2761.7498" font-family="Courier,monospace" font-size="11.00" fill="#000000">PlayerLyncCurlHttpClient</text>
</g>
<!-- \\PlayerLync\\HttpClients\\PlayerLyncHttpClientInterface -->
<g id="node11" class="node">
<title>\\PlayerLync\\HttpClients\\PlayerLyncHttpClientInterface</title>
<polygon fill="none" stroke="#000000" points="383.309,-2783.0498 175.4458,-2783.0498 175.4458,-2747.0498 383.309,-2747.0498 383.309,-2783.0498"/>
<text text-anchor="middle" x="279.3774" y="-2761.7498" font-family="Courier,monospace" font-size="11.00" fill="#000000">PlayerLyncHttpClientInterface</text>
</g>
<!-- \\PlayerLync\\HttpClients\\PlayerLyncCurlHttpClient&#45;&gt;\\PlayerLync\\HttpClients\\PlayerLyncHttpClientInterface -->
<g id="edge11" class="edge">
<title>\\PlayerLync\\HttpClients\\PlayerLyncCurlHttpClient&#45;&gt;\\PlayerLync\\HttpClients\\PlayerLyncHttpClientInterface</title>
<path fill="none" stroke="#000000" stroke-dasharray="1,5" d="M484.6074,-2765.0498C456.0095,-2765.0498 423.8071,-2765.0498 393.5364,-2765.0498"/>
<polygon fill="none" stroke="#000000" points="393.3528,-2761.5499 383.3528,-2765.0498 393.3527,-2768.5499 393.3528,-2761.5499"/>
</g>
<!-- \\PlayerLync\\Http\\PLAPIRawResponse -->
<g id="node12" class="node">
<title>\\PlayerLync\\Http\\PLAPIRawResponse</title>
<polygon fill="none" stroke="#000000" points="632.6285,-2704.0498 511.3929,-2704.0498 511.3929,-2668.0498 632.6285,-2668.0498 632.6285,-2704.0498"/>
<text text-anchor="middle" x="572.0107" y="-2682.7498" font-family="Courier,monospace" font-size="11.00" fill="#000000">PLAPIRawResponse</text>
</g>
<!-- \\PlayerLync\\Http\\RequestBodyMultipart -->
<g id="node13" class="node">
<title>\\PlayerLync\\Http\\RequestBodyMultipart</title>
<polygon fill="none" stroke="#000000" points="646.0322,-2542.0498 497.9892,-2542.0498 497.9892,-2506.0498 646.0322,-2506.0498 646.0322,-2542.0498"/>
<text text-anchor="middle" x="572.0107" y="-2520.7498" font-family="Courier,monospace" font-size="11.00" fill="#000000">RequestBodyMultipart</text>
</g>
<!-- \\PlayerLync\\Http\\RequestBodyInterface -->
<g id="node16" class="node">
<title>\\PlayerLync\\Http\\RequestBodyInterface</title>
<polygon fill="none" stroke="#000000" points="353.3989,-2596.0498 205.3559,-2596.0498 205.3559,-2560.0498 353.3989,-2560.0498 353.3989,-2596.0498"/>
<text text-anchor="middle" x="279.3774" y="-2574.7498" font-family="Courier,monospace" font-size="11.00" fill="#000000">RequestBodyInterface</text>
</g>
<!-- \\PlayerLync\\Http\\RequestBodyMultipart&#45;&gt;\\PlayerLync\\Http\\RequestBodyInterface -->
<g id="edge17" class="edge">
<title>\\PlayerLync\\Http\\RequestBodyMultipart&#45;&gt;\\PlayerLync\\Http\\RequestBodyInterface</title>
<path fill="none" stroke="#000000" stroke-dasharray="1,5" d="M497.7887,-2537.7461C456.8743,-2545.2961 405.933,-2554.6964 363.5414,-2562.519"/>
<polygon fill="none" stroke="#000000" points="362.7191,-2559.1115 353.5203,-2564.3682 363.9895,-2565.9953 362.7191,-2559.1115"/>
</g>
<!-- \\PlayerLync\\Http\\RequestBodyJsonEncoded -->
<g id="node14" class="node">
<title>\\PlayerLync\\Http\\RequestBodyJsonEncoded</title>
<polygon fill="none" stroke="#000000" points="652.7345,-2650.0498 491.2869,-2650.0498 491.2869,-2614.0498 652.7345,-2614.0498 652.7345,-2650.0498"/>
<text text-anchor="middle" x="572.0107" y="-2628.7498" font-family="Courier,monospace" font-size="11.00" fill="#000000">RequestBodyJsonEncoded</text>
</g>
<!-- \\PlayerLync\\Http\\RequestBodyJsonEncoded&#45;&gt;\\PlayerLync\\Http\\RequestBodyInterface -->
<g id="edge19" class="edge">
<title>\\PlayerLync\\Http\\RequestBodyJsonEncoded&#45;&gt;\\PlayerLync\\Http\\RequestBodyInterface</title>
<path fill="none" stroke="#000000" stroke-dasharray="1,5" d="M491.2727,-2617.1512C451.6593,-2609.8412 403.9599,-2601.0392 363.8559,-2593.6388"/>
<polygon fill="none" stroke="#000000" points="364.3023,-2590.1621 353.8332,-2591.7893 363.032,-2597.0459 364.3023,-2590.1621"/>
</g>
<!-- \\PlayerLync\\Http\\RequestBodyUrlEncoded -->
<g id="node15" class="node">
<title>\\PlayerLync\\Http\\RequestBodyUrlEncoded</title>
<polygon fill="none" stroke="#000000" points="649.1337,-2596.0498 494.8877,-2596.0498 494.8877,-2560.0498 649.1337,-2560.0498 649.1337,-2596.0498"/>
<text text-anchor="middle" x="572.0107" y="-2574.7498" font-family="Courier,monospace" font-size="11.00" fill="#000000">RequestBodyUrlEncoded</text>
</g>
<!-- \\PlayerLync\\Http\\RequestBodyUrlEncoded&#45;&gt;\\PlayerLync\\Http\\RequestBodyInterface -->
<g id="edge25" class="edge">
<title>\\PlayerLync\\Http\\RequestBodyUrlEncoded&#45;&gt;\\PlayerLync\\Http\\RequestBodyInterface</title>
<path fill="none" stroke="#000000" stroke-dasharray="1,5" d="M494.7419,-2578.0498C454.3817,-2578.0498 404.9268,-2578.0498 363.5912,-2578.0498"/>
<polygon fill="none" stroke="#000000" points="363.5418,-2574.5499 353.5418,-2578.0498 363.5417,-2581.5499 363.5418,-2574.5499"/>
</g>
<!-- \\PlayerLync\\Url\\PlayerLyncUrlManipulator -->
<g id="node17" class="node">
<title>\\PlayerLync\\Url\\PlayerLyncUrlManipulator</title>
<polygon fill="none" stroke="#000000" points="659.437,-2463.0498 484.5844,-2463.0498 484.5844,-2427.0498 659.437,-2427.0498 659.437,-2463.0498"/>
<text text-anchor="middle" x="572.0107" y="-2441.7498" font-family="Courier,monospace" font-size="11.00" fill="#000000">PlayerLyncUrlManipulator</text>
</g>
<!-- \\PlayerLync\\FileUpload\\Mimetypes -->
<g id="node18" class="node">
<title>\\PlayerLync\\FileUpload\\Mimetypes</title>
<polygon fill="none" stroke="#000000" points="609.9215,-2384.0498 534.0999,-2384.0498 534.0999,-2348.0498 609.9215,-2348.0498 609.9215,-2384.0498"/>
<text text-anchor="middle" x="572.0107" y="-2362.7498" font-family="Courier,monospace" font-size="11.00" fill="#000000">Mimetypes</text>
</g>
<!-- \\PlayerLync\\FileUpload\\PlayerLyncVideo -->
<g id="node19" class="node">
<title>\\PlayerLync\\FileUpload\\PlayerLyncVideo</title>
<polygon fill="none" stroke="#000000" points="629.5268,-2330.0498 514.4946,-2330.0498 514.4946,-2294.0498 629.5268,-2294.0498 629.5268,-2330.0498"/>
<text text-anchor="middle" x="572.0107" y="-2308.7498" font-family="Courier,monospace" font-size="11.00" fill="#000000">PlayerLyncVideo</text>
</g>
<!-- \\PlayerLync\\FileUpload\\PlayerLyncFile -->
<g id="node20" class="node">
<title>\\PlayerLync\\FileUpload\\PlayerLyncFile</title>
<polygon fill="none" stroke="#000000" points="333.7932,-2330.0498 224.9616,-2330.0498 224.9616,-2294.0498 333.7932,-2294.0498 333.7932,-2330.0498"/>
<text text-anchor="middle" x="279.3774" y="-2308.7498" font-family="Courier,monospace" font-size="11.00" fill="#000000">PlayerLyncFile</text>
</g>
<!-- \\PlayerLync\\FileUpload\\PlayerLyncVideo&#45;&gt;\\PlayerLync\\FileUpload\\PlayerLyncFile -->
<g id="edge21" class="edge">
<title>\\PlayerLync\\FileUpload\\PlayerLyncVideo&#45;&gt;\\PlayerLync\\FileUpload\\PlayerLyncFile</title>
<path fill="none" stroke="#000000" d="M514.1958,-2312.0498C465.1089,-2312.0498 394.7353,-2312.0498 343.8415,-2312.0498"/>
<polygon fill="none" stroke="#000000" points="343.6134,-2308.5499 333.6134,-2312.0498 343.6134,-2315.5499 343.6134,-2308.5499"/>
</g>
<!-- \\PlayerLync\\PlayerLyncResponse -->
<g id="node21" class="node">
<title>\\PlayerLync\\PlayerLyncResponse</title>
<polygon fill="none" stroke="#000000" points="639.3301,-2276.0498 504.6912,-2276.0498 504.6912,-2240.0498 639.3301,-2240.0498 639.3301,-2276.0498"/>
<text text-anchor="middle" x="572.0107" y="-2254.7498" font-family="Courier,monospace" font-size="11.00" fill="#000000">PlayerLyncResponse</text>
</g>
<!-- \\PlayerLync\\PlayerLyncApp -->
<g id="node22" class="node">
<title>\\PlayerLync\\PlayerLyncApp</title>
<polygon fill="none" stroke="#000000" points="622.8248,-2222.0498 521.1966,-2222.0498 521.1966,-2186.0498 622.8248,-2186.0498 622.8248,-2222.0498"/>
<text text-anchor="middle" x="572.0107" y="-2200.7498" font-family="Courier,monospace" font-size="11.00" fill="#000000">PlayerLyncApp</text>
</g>
<!-- \\PlayerLync\\PlayerLyncRequest -->
<g id="node23" class="node">
<title>\\PlayerLync\\PlayerLyncRequest</title>
<polygon fill="none" stroke="#000000" points="636.2291,-2168.0498 507.7922,-2168.0498 507.7922,-2132.0498 636.2291,-2132.0498 636.2291,-2168.0498"/>
<text text-anchor="middle" x="572.0107" y="-2146.7498" font-family="Courier,monospace" font-size="11.00" fill="#000000">PlayerLyncRequest</text>
</g>
<!-- \\PlayerLync\\PlayerLync -->
<g id="node24" class="node">
<title>\\PlayerLync\\PlayerLync</title>
<polygon fill="none" stroke="#000000" points="613.0214,-2114.0498 530.9999,-2114.0498 530.9999,-2078.0498 613.0214,-2078.0498 613.0214,-2114.0498"/>
<text text-anchor="middle" x="572.0107" y="-2092.7498" font-family="Courier,monospace" font-size="11.00" fill="#000000">PlayerLync</text>
</g>
<!-- \\PlayerLync\\PlayerLyncClient -->
<g id="node25" class="node">
<title>\\PlayerLync\\PlayerLyncClient</title>
<polygon fill="none" stroke="#000000" points="632.6285,-2060.0498 511.3929,-2060.0498 511.3929,-2024.0498 632.6285,-2024.0498 632.6285,-2060.0498"/>
<text text-anchor="middle" x="572.0107" y="-2038.7498" font-family="Courier,monospace" font-size="11.00" fill="#000000">PlayerLyncClient</text>
</g>
<!-- \\PlMigration\\Builder\\Traits\\ApiBuilderTrait -->
<g id="node26" class="node">
<title>\\PlMigration\\Builder\\Traits\\ApiBuilderTrait</title>
<polygon fill="none" stroke="#000000" points="629.5268,-1927.0498 514.4946,-1927.0498 514.4946,-1891.0498 629.5268,-1891.0498 629.5268,-1927.0498"/>
<text text-anchor="middle" x="572.0107" y="-1905.7498" font-family="Courier,monospace" font-size="11.00" fill="#000000">ApiBuilderTrait</text>
</g>
<!-- \\PlMigration\\Builder\\Traits\\ErrorLogBuilderTrait -->
<g id="node27" class="node">
<title>\\PlMigration\\Builder\\Traits\\ErrorLogBuilderTrait</title>
<polygon fill="none" stroke="#000000" points="646.0322,-1873.0498 497.9892,-1873.0498 497.9892,-1837.0498 646.0322,-1837.0498 646.0322,-1873.0498"/>
<text text-anchor="middle" x="572.0107" y="-1851.7498" font-family="Courier,monospace" font-size="11.00" fill="#000000">ErrorLogBuilderTrait</text>
</g>
<!-- \\PlMigration\\Builder\\Traits\\CsvBuilderTrait -->
<g id="node28" class="node">
<title>\\PlMigration\\Builder\\Traits\\CsvBuilderTrait</title>
<polygon fill="none" stroke="#000000" points="629.5268,-1819.0498 514.4946,-1819.0498 514.4946,-1783.0498 629.5268,-1783.0498 629.5268,-1819.0498"/>
<text text-anchor="middle" x="572.0107" y="-1797.7498" font-family="Courier,monospace" font-size="11.00" fill="#000000">CsvBuilderTrait</text>
</g>
<!-- \\PlMigration\\Builder\\Helper\\TimeFormat -->
<g id="node29" class="node">
<title>\\PlMigration\\Builder\\Helper\\TimeFormat</title>
<polygon fill="none" stroke="#000000" points="613.0214,-1740.0498 530.9999,-1740.0498 530.9999,-1704.0498 613.0214,-1704.0498 613.0214,-1740.0498"/>
<text text-anchor="middle" x="572.0107" y="-1718.7498" font-family="Courier,monospace" font-size="11.00" fill="#000000">TimeFormat</text>
</g>
<!-- \\PlMigration\\Builder\\FileImportBuilder -->
<g id="node30" class="node">
<title>\\PlMigration\\Builder\\FileImportBuilder</title>
<polygon fill="none" stroke="#000000" points="343.5958,-1524.0498 215.1589,-1524.0498 215.1589,-1488.0498 343.5958,-1488.0498 343.5958,-1524.0498"/>
<text text-anchor="middle" x="279.3774" y="-1502.7498" font-family="Courier,monospace" font-size="11.00" fill="#000000">FileImportBuilder</text>
</g>
<!-- \\PlMigration\\Builder\\FileExportBuilder -->
<g id="node31" class="node">
<title>\\PlMigration\\Builder\\FileExportBuilder</title>
<polygon fill="none" stroke="#000000" points="636.2291,-1686.0498 507.7922,-1686.0498 507.7922,-1650.0498 636.2291,-1650.0498 636.2291,-1686.0498"/>
<text text-anchor="middle" x="572.0107" y="-1664.7498" font-family="Courier,monospace" font-size="11.00" fill="#000000">FileExportBuilder</text>
</g>
<!-- \\PlMigration\\Builder\\SftpBuilder -->
<g id="node32" class="node">
<title>\\PlMigration\\Builder\\SftpBuilder</title>
<polygon fill="none" stroke="#000000" points="616.1234,-1632.0498 527.898,-1632.0498 527.898,-1596.0498 616.1234,-1596.0498 616.1234,-1632.0498"/>
<text text-anchor="middle" x="572.0107" y="-1610.7498" font-family="Courier,monospace" font-size="11.00" fill="#000000">SftpBuilder</text>
</g>
<!-- \\PlMigration\\Builder\\FtpBuilder -->
<g id="node33" class="node">
<title>\\PlMigration\\Builder\\FtpBuilder</title>
<polygon fill="none" stroke="#000000" points="613.0214,-1578.0498 530.9999,-1578.0498 530.9999,-1542.0498 613.0214,-1542.0498 613.0214,-1578.0498"/>
<text text-anchor="middle" x="572.0107" y="-1556.7498" font-family="Courier,monospace" font-size="11.00" fill="#000000">FtpBuilder</text>
</g>
<!-- \\PlMigration\\Builder\\FileImportSyncBuilder -->
<g id="node34" class="node">
<title>\\PlMigration\\Builder\\FileImportSyncBuilder</title>
<polygon fill="none" stroke="#000000" points="649.1337,-1524.0498 494.8877,-1524.0498 494.8877,-1488.0498 649.1337,-1488.0498 649.1337,-1524.0498"/>
<text text-anchor="middle" x="572.0107" y="-1502.7498" font-family="Courier,monospace" font-size="11.00" fill="#000000">FileImportSyncBuilder</text>
</g>
<!-- \\PlMigration\\Builder\\FileImportSyncBuilder&#45;&gt;\\PlMigration\\Builder\\FileImportBuilder -->
<g id="edge15" class="edge">
<title>\\PlMigration\\Builder\\FileImportSyncBuilder&#45;&gt;\\PlMigration\\Builder\\FileImportBuilder</title>
<path fill="none" stroke="#000000" d="M494.7419,-1506.0498C451.1611,-1506.0498 396.9761,-1506.0498 353.8596,-1506.0498"/>
<polygon fill="none" stroke="#000000" points="353.7144,-1502.5499 343.7144,-1506.0498 353.7144,-1509.5499 353.7144,-1502.5499"/>
</g>
<!-- \\PlMigration\\Writer\\CsvWriter -->
<g id="node35" class="node">
<title>\\PlMigration\\Writer\\CsvWriter</title>
<polygon fill="none" stroke="#000000" points="609.9215,-1445.0498 534.0999,-1445.0498 534.0999,-1409.0498 609.9215,-1409.0498 609.9215,-1445.0498"/>
<text text-anchor="middle" x="572.0107" y="-1423.7498" font-family="Courier,monospace" font-size="11.00" fill="#000000">CsvWriter</text>
</g>
<!-- \\PlMigration\\Writer\\IWriter -->
<g id="node37" class="node">
<title>\\PlMigration\\Writer\\IWriter</title>
<polygon fill="none" stroke="#000000" points="310.5853,-1445.0498 248.1695,-1445.0498 248.1695,-1409.0498 310.5853,-1409.0498 310.5853,-1445.0498"/>
<text text-anchor="middle" x="279.3774" y="-1423.7498" font-family="Courier,monospace" font-size="11.00" fill="#000000">IWriter</text>
</g>
<!-- \\PlMigration\\Writer\\CsvWriter&#45;&gt;\\PlMigration\\Writer\\IWriter -->
<g id="edge2" class="edge">
<title>\\PlMigration\\Writer\\CsvWriter&#45;&gt;\\PlMigration\\Writer\\IWriter</title>
<path fill="none" stroke="#000000" stroke-dasharray="1,5" d="M534.054,-1427.0498C479.0225,-1427.0498 377.4641,-1427.0498 320.6366,-1427.0498"/>
<polygon fill="none" stroke="#000000" points="320.5676,-1423.5499 310.5675,-1427.0498 320.5675,-1430.5499 320.5676,-1423.5499"/>
</g>
<!-- \\Keboola\\Csv\\CsvWriter -->
<g id="node64" class="node">
<title>\\Keboola\\Csv\\CsvWriter</title>
<ellipse fill="none" stroke="#000000" cx="279.3774" cy="-56.0498" rx="97.8734" ry="18"/>
<text text-anchor="middle" x="279.3774" y="-51.8498" font-family="Times,serif" font-size="14.00" fill="#c0c0c0">\Keboola\Csv\CsvWriter</text>
</g>
<!-- \\PlMigration\\Writer\\CsvWriter&#45;&gt;\\Keboola\\Csv\\CsvWriter -->
<g id="edge1" class="edge">
<title>\\PlMigration\\Writer\\CsvWriter&#45;&gt;\\Keboola\\Csv\\CsvWriter</title>
<path fill="none" stroke="#000000" d="M534.1531,-1429.2164C507.7861,-1428.4788 474.0672,-1422.6092 455.093,-1400.0498 266.8577,-1176.2475 565.1473,-314.9083 383.093,-86.0498 378.48,-80.251 372.8186,-75.5277 366.5426,-71.686"/>
<polygon fill="none" stroke="#000000" points="368.1196,-68.5607 357.644,-66.9757 364.8447,-74.7474 368.1196,-68.5607"/>
</g>
<!-- \\PlMigration\\Writer\\TransactionLogger -->
<g id="node36" class="node">
<title>\\PlMigration\\Writer\\TransactionLogger</title>
<polygon fill="none" stroke="#000000" points="636.2291,-1391.0498 507.7922,-1391.0498 507.7922,-1355.0498 636.2291,-1355.0498 636.2291,-1391.0498"/>
<text text-anchor="middle" x="572.0107" y="-1369.7498" font-family="Courier,monospace" font-size="11.00" fill="#000000">TransactionLogger</text>
</g>
<!-- \\PlMigration\\Model\\Field -->
<g id="node38" class="node">
<title>\\PlMigration\\Model\\Field</title>
<polygon fill="none" stroke="#000000" points="599.0107,-1312.0498 545.0107,-1312.0498 545.0107,-1276.0498 599.0107,-1276.0498 599.0107,-1312.0498"/>
<text text-anchor="middle" x="572.0107" y="-1290.7498" font-family="Courier,monospace" font-size="11.00" fill="#000000">Field</text>
</g>
<!-- \\PlMigration\\Model\\ExportModel -->
<g id="node39" class="node">
<title>\\PlMigration\\Model\\ExportModel</title>
<polygon fill="none" stroke="#000000" points="616.1234,-1258.0498 527.898,-1258.0498 527.898,-1222.0498 616.1234,-1222.0498 616.1234,-1258.0498"/>
<text text-anchor="middle" x="572.0107" y="-1236.7498" font-family="Courier,monospace" font-size="11.00" fill="#000000">ExportModel</text>
</g>
<!-- \\PlMigration\\Model\\ImportModel -->
<g id="node40" class="node">
<title>\\PlMigration\\Model\\ImportModel</title>
<polygon fill="none" stroke="#000000" points="616.1234,-1204.0498 527.898,-1204.0498 527.898,-1168.0498 616.1234,-1168.0498 616.1234,-1204.0498"/>
<text text-anchor="middle" x="572.0107" y="-1182.7498" font-family="Courier,monospace" font-size="11.00" fill="#000000">ImportModel</text>
</g>
<!-- \\PlMigration\\Model\\Formatter -->
<g id="node41" class="node">
<title>\\PlMigration\\Model\\Formatter</title>
<polygon fill="none" stroke="#000000" points="609.9215,-1150.0498 534.0999,-1150.0498 534.0999,-1114.0498 609.9215,-1114.0498 609.9215,-1150.0498"/>
<text text-anchor="middle" x="572.0107" y="-1128.7498" font-family="Courier,monospace" font-size="11.00" fill="#000000">Formatter</text>
</g>
<!-- \\PlMigration\\Connectors\\APIConnector -->
<g id="node42" class="node">
<title>\\PlMigration\\Connectors\\APIConnector</title>
<polygon fill="none" stroke="#000000" points="619.7238,-1071.0498 524.2976,-1071.0498 524.2976,-1035.0498 619.7238,-1035.0498 619.7238,-1071.0498"/>
<text text-anchor="middle" x="572.0107" y="-1049.7498" font-family="Courier,monospace" font-size="11.00" fill="#000000">APIConnector</text>
</g>
<!-- \\PlMigration\\Connectors\\IConnector -->
<g id="node43" class="node">
<title>\\PlMigration\\Connectors\\IConnector</title>
<polygon fill="none" stroke="#000000" points="320.3881,-1071.0498 238.3666,-1071.0498 238.3666,-1035.0498 320.3881,-1035.0498 320.3881,-1071.0498"/>
<text text-anchor="middle" x="279.3774" y="-1049.7498" font-family="Courier,monospace" font-size="11.00" fill="#000000">IConnector</text>
</g>
<!-- \\PlMigration\\Connectors\\APIConnector&#45;&gt;\\PlMigration\\Connectors\\IConnector -->
<g id="edge4" class="edge">
<title>\\PlMigration\\Connectors\\APIConnector&#45;&gt;\\PlMigration\\Connectors\\IConnector</title>
<path fill="none" stroke="#000000" stroke-dasharray="1,5" d="M524.3428,-1053.0498C471.0905,-1053.0498 385.2057,-1053.0498 330.5646,-1053.0498"/>
<polygon fill="none" stroke="#000000" points="330.4063,-1049.5499 320.4063,-1053.0498 330.4062,-1056.5499 330.4063,-1049.5499"/>
</g>
<!-- \\PlMigration\\Reader\\CsvReader -->
<g id="node44" class="node">
<title>\\PlMigration\\Reader\\CsvReader</title>
<polygon fill="none" stroke="#000000" points="609.9215,-992.0498 534.0999,-992.0498 534.0999,-956.0498 609.9215,-956.0498 609.9215,-992.0498"/>
<text text-anchor="middle" x="572.0107" y="-970.7498" font-family="Courier,monospace" font-size="11.00" fill="#000000">CsvReader</text>
</g>
<!-- \\PlMigration\\Reader\\IReader -->
<g id="node45" class="node">
<title>\\PlMigration\\Reader\\IReader</title>
<polygon fill="none" stroke="#000000" points="310.5853,-992.0498 248.1695,-992.0498 248.1695,-956.0498 310.5853,-956.0498 310.5853,-992.0498"/>
<text text-anchor="middle" x="279.3774" y="-970.7498" font-family="Courier,monospace" font-size="11.00" fill="#000000">IReader</text>
</g>
<!-- \\PlMigration\\Reader\\CsvReader&#45;&gt;\\PlMigration\\Reader\\IReader -->
<g id="edge5" class="edge">
<title>\\PlMigration\\Reader\\CsvReader&#45;&gt;\\PlMigration\\Reader\\IReader</title>
<path fill="none" stroke="#000000" stroke-dasharray="1,5" d="M534.054,-974.0498C479.0225,-974.0498 377.4641,-974.0498 320.6366,-974.0498"/>
<polygon fill="none" stroke="#000000" points="320.5676,-970.5499 310.5675,-974.0498 320.5675,-977.5499 320.5676,-970.5499"/>
</g>
<!-- \\PlMigration\\Client\\SftpClient -->
<g id="node46" class="node">
<title>\\PlMigration\\Client\\SftpClient</title>
<polygon fill="none" stroke="#000000" points="613.0214,-913.0498 530.9999,-913.0498 530.9999,-877.0498 613.0214,-877.0498 613.0214,-913.0498"/>
<text text-anchor="middle" x="572.0107" y="-891.7498" font-family="Courier,monospace" font-size="11.00" fill="#000000">SftpClient</text>
</g>
<!-- \\PlMigration\\Client\\Client -->
<g id="node48" class="node">
<title>\\PlMigration\\Client\\Client</title>
<polygon fill="none" stroke="#000000" points="320.3881,-886.0498 238.3666,-886.0498 238.3666,-850.0498 320.3881,-850.0498 320.3881,-886.0498"/>
<text text-anchor="start" x="246.372" y="-870.2498" font-family="Courier,monospace" font-size="11.00" fill="#000000">«abstract»</text>
<text text-anchor="start" x="259.5742" y="-859.2498" font-family="Courier,monospace" font-size="11.00" fill="#000000">Client</text>
</g>
<!-- \\PlMigration\\Client\\SftpClient&#45;&gt;\\PlMigration\\Client\\Client -->
<g id="edge6" class="edge">
<title>\\PlMigration\\Client\\SftpClient&#45;&gt;\\PlMigration\\Client\\Client</title>
<path fill="none" stroke="#000000" d="M530.7041,-891.2387C478.2001,-886.3943 387.5673,-878.0321 330.6853,-872.7838"/>
<polygon fill="none" stroke="#000000" points="330.7531,-869.2753 320.4738,-871.8416 330.1099,-876.2457 330.7531,-869.2753"/>
</g>
<!-- \\PlMigration\\Client\\FtpClient -->
<g id="node47" class="node">
<title>\\PlMigration\\Client\\FtpClient</title>
<polygon fill="none" stroke="#000000" points="609.9215,-859.0498 534.0999,-859.0498 534.0999,-823.0498 609.9215,-823.0498 609.9215,-859.0498"/>
<text text-anchor="middle" x="572.0107" y="-837.7498" font-family="Courier,monospace" font-size="11.00" fill="#000000">FtpClient</text>
</g>
<!-- \\PlMigration\\Client\\FtpClient&#45;&gt;\\PlMigration\\Client\\Client -->
<g id="edge12" class="edge">
<title>\\PlMigration\\Client\\FtpClient&#45;&gt;\\PlMigration\\Client\\Client</title>
<path fill="none" stroke="#000000" d="M534.054,-844.5519C482.1179,-849.3439 388.7417,-857.9593 330.6341,-863.3206"/>
<polygon fill="none" stroke="#000000" points="330.2016,-859.8456 320.5655,-864.2496 330.8448,-866.8159 330.2016,-859.8456"/>
</g>
<!-- \\PlMigration\\Client\\IClient -->
<g id="node49" class="node">
<title>\\PlMigration\\Client\\IClient</title>
<polygon fill="none" stroke="#000000" points="94.3116,-886.0498 31.8959,-886.0498 31.8959,-850.0498 94.3116,-850.0498 94.3116,-886.0498"/>
<text text-anchor="middle" x="63.1038" y="-864.7498" font-family="Courier,monospace" font-size="11.00" fill="#000000">IClient</text>
</g>
<!-- \\PlMigration\\Client\\Client&#45;&gt;\\PlMigration\\Client\\IClient -->
<g id="edge18" class="edge">
<title>\\PlMigration\\Client\\Client&#45;&gt;\\PlMigration\\Client\\IClient</title>
<path fill="none" stroke="#000000" stroke-dasharray="1,5" d="M238.1889,-868.0498C199.8761,-868.0498 143.0782,-868.0498 104.6506,-868.0498"/>
<polygon fill="none" stroke="#000000" points="104.3299,-864.5499 94.3298,-868.0498 104.3298,-871.5499 104.3299,-864.5499"/>
</g>
<!-- \\PlMigration\\Exceptions\\ConnectorException -->
<g id="node50" class="node">
<title>\\PlMigration\\Exceptions\\ConnectorException</title>
<polygon fill="none" stroke="#000000" points="639.3301,-304.0498 504.6912,-304.0498 504.6912,-268.0498 639.3301,-268.0498 639.3301,-304.0498"/>
<text text-anchor="middle" x="572.0107" y="-282.7498" font-family="Courier,monospace" font-size="11.00" fill="#000000">ConnectorException</text>
</g>
<!-- \\PlMigration\\Exceptions\\ConnectorException&#45;&gt;\\Exception -->
<g id="edge7" class="edge">
<title>\\PlMigration\\Exceptions\\ConnectorException&#45;&gt;\\Exception</title>
<path fill="none" stroke="#000000" d="M504.417,-282.5238C486.56,-278.5919 468.5418,-271.5082 455.093,-259.0498 376.5137,-186.2578 463.3173,-100.0247 383.093,-29.0498 347.9944,2.0021 323.7855,-25.0182 279.3774,-10.0498"/>
</g>
<!-- \\PlMigration\\Exceptions\\ReaderException -->
<g id="node51" class="node">
<title>\\PlMigration\\Exceptions\\ReaderException</title>
<polygon fill="none" stroke="#000000" points="629.5268,-250.0498 514.4946,-250.0498 514.4946,-214.0498 629.5268,-214.0498 629.5268,-250.0498"/>
<text text-anchor="middle" x="572.0107" y="-228.7498" font-family="Courier,monospace" font-size="11.00" fill="#000000">ReaderException</text>
</g>
<!-- \\PlMigration\\Exceptions\\ReaderException&#45;&gt;\\Exception -->
<g id="edge14" class="edge">
<title>\\PlMigration\\Exceptions\\ReaderException&#45;&gt;\\Exception</title>
<path fill="none" stroke="#000000" d="M514.4591,-229.5913C493.7733,-226.1047 471.5185,-219.0178 455.093,-205.0498 390.7101,-150.2999 448.7118,-82.3123 383.093,-29.0498 346.7077,.4839 323.7855,-25.0182 279.3774,-10.0498"/>
</g>
<!-- \\PlMigration\\Exceptions\\WriterException -->
<g id="node52" class="node">
<title>\\PlMigration\\Exceptions\\WriterException</title>
<polygon fill="none" stroke="#000000" points="629.5268,-196.0498 514.4946,-196.0498 514.4946,-160.0498 629.5268,-160.0498 629.5268,-196.0498"/>
<text text-anchor="middle" x="572.0107" y="-174.7498" font-family="Courier,monospace" font-size="11.00" fill="#000000">WriterException</text>
</g>
<!-- \\PlMigration\\Exceptions\\WriterException&#45;&gt;\\Exception -->
<g id="edge16" class="edge">
<title>\\PlMigration\\Exceptions\\WriterException&#45;&gt;\\Exception</title>
<path fill="none" stroke="#000000" d="M514.2951,-174.0723C494.0608,-170.3781 472.15,-163.5465 455.093,-151.0498 404.3043,-113.8401 434.7198,-65.0877 383.093,-29.0498 344.6661,-2.2262 323.7855,-25.0182 279.3774,-10.0498"/>
</g>
<!-- \\PlMigration\\Exceptions\\ImportException -->
<g id="node53" class="node">
<title>\\PlMigration\\Exceptions\\ImportException</title>
<polygon fill="none" stroke="#000000" points="629.5268,-142.0498 514.4946,-142.0498 514.4946,-106.0498 629.5268,-106.0498 629.5268,-142.0498"/>
<text text-anchor="middle" x="572.0107" y="-120.7498" font-family="Courier,monospace" font-size="11.00" fill="#000000">ImportException</text>
</g>
<!-- \\PlMigration\\Exceptions\\ImportException&#45;&gt;\\Exception -->
<g id="edge20" class="edge">
<title>\\PlMigration\\Exceptions\\ImportException&#45;&gt;\\Exception</title>
<path fill="none" stroke="#000000" d="M279.3774,-10.0498C220.6639,9.7403 148.3622,-5.2891 104.0142,-18.6319"/>
<polygon fill="none" stroke="#000000" points="102.9543,-15.2961 94.4497,-21.6145 105.0383,-21.9787 102.9543,-15.2961"/>
<path fill="none" stroke="#000000" d="M542.7271,-105.9974C506.5333,-84.483 442.4383,-48.951 383.093,-29.0498 338.6618,-14.1501 323.7855,-25.0182 279.3774,-10.0498"/>
</g>
<!-- \\PlMigration\\Exceptions\\ExportException -->
<g id="node54" class="node">
<title>\\PlMigration\\Exceptions\\ExportException</title>
<polygon fill="none" stroke="#000000" points="629.5268,-466.0498 514.4946,-466.0498 514.4946,-430.0498 629.5268,-430.0498 629.5268,-466.0498"/>
<text text-anchor="middle" x="572.0107" y="-444.7498" font-family="Courier,monospace" font-size="11.00" fill="#000000">ExportException</text>
</g>
<!-- \\PlMigration\\Exceptions\\ExportException&#45;&gt;\\Exception -->
<g id="edge23" class="edge">
<title>\\PlMigration\\Exceptions\\ExportException&#45;&gt;\\Exception</title>
<path fill="none" stroke="#000000" d="M514.343,-447.5463C493.0174,-444.3871 470.3499,-437.0141 455.093,-421.0498 332.7076,-292.9904 508.3766,-154.2753 383.093,-29.0498 349.9482,4.0795 323.7855,-25.0182 279.3774,-10.0498"/>
</g>
<!-- \\PlMigration\\Exceptions\\BuilderException -->
<g id="node55" class="node">
<title>\\PlMigration\\Exceptions\\BuilderException</title>
<polygon fill="none" stroke="#000000" points="632.6285,-412.0498 511.3929,-412.0498 511.3929,-376.0498 632.6285,-376.0498 632.6285,-412.0498"/>
<text text-anchor="middle" x="572.0107" y="-390.7498" font-family="Courier,monospace" font-size="11.00" fill="#000000">BuilderException</text>
</g>
<!-- \\PlMigration\\Exceptions\\BuilderException&#45;&gt;\\Exception -->
<g id="edge24" class="edge">
<title>\\PlMigration\\Exceptions\\BuilderException&#45;&gt;\\Exception</title>
<path fill="none" stroke="#000000" d="M511.2487,-392.7922C490.9429,-389.3489 469.7705,-381.9801 455.093,-367.0498 347.4176,-257.5203 493.2465,-136.0868 383.093,-29.0498 349.4839,3.6084 323.7855,-25.0182 279.3774,-10.0498"/>
</g>
<!-- \\PlMigration\\Exceptions\\ClientException -->
<g id="node56" class="node">
<title>\\PlMigration\\Exceptions\\ClientException</title>
<polygon fill="none" stroke="#000000" points="629.5268,-358.0498 514.4946,-358.0498 514.4946,-322.0498 629.5268,-322.0498 629.5268,-358.0498"/>
<text text-anchor="middle" x="572.0107" y="-336.7498" font-family="Courier,monospace" font-size="11.00" fill="#000000">ClientException</text>
</g>
<!-- \\PlMigration\\Exceptions\\ClientException&#45;&gt;\\Exception -->
<g id="edge28" class="edge">
<title>\\PlMigration\\Exceptions\\ClientException&#45;&gt;\\Exception</title>
<path fill="none" stroke="#000000" d="M514.2802,-338.9211C493.202,-335.6429 470.7244,-328.3512 455.093,-313.0498 362.0397,-221.9612 478.2062,-117.9854 383.093,-29.0498 348.8629,2.957 323.7855,-25.0182 279.3774,-10.0498"/>
</g>
<!-- \\PlMigration\\Helper\\DataFunctions\\RemoveSpecialCharacters -->
<g id="node57" class="node">
<title>\\PlMigration\\Helper\\DataFunctions\\RemoveSpecialCharacters</title>
<polygon fill="none" stroke="#000000" points="655.8355,-753.0498 488.1859,-753.0498 488.1859,-717.0498 655.8355,-717.0498 655.8355,-753.0498"/>
<text text-anchor="middle" x="572.0107" y="-731.7498" font-family="Courier,monospace" font-size="11.00" fill="#000000">RemoveSpecialCharacters</text>
</g>
<!-- \\PlMigration\\Helper\\DataFunctions\\IValueManipulator -->
<g id="node58" class="node">
<title>\\PlMigration\\Helper\\DataFunctions\\IValueManipulator</title>
<polygon fill="none" stroke="#000000" points="343.5958,-753.0498 215.1589,-753.0498 215.1589,-717.0498 343.5958,-717.0498 343.5958,-753.0498"/>
<text text-anchor="middle" x="279.3774" y="-731.7498" font-family="Courier,monospace" font-size="11.00" fill="#000000">IValueManipulator</text>
</g>
<!-- \\PlMigration\\Helper\\DataFunctions\\RemoveSpecialCharacters&#45;&gt;\\PlMigration\\Helper\\DataFunctions\\IValueManipulator -->
<g id="edge8" class="edge">
<title>\\PlMigration\\Helper\\DataFunctions\\RemoveSpecialCharacters&#45;&gt;\\PlMigration\\Helper\\DataFunctions\\IValueManipulator</title>
<path fill="none" stroke="#000000" stroke-dasharray="1,5" d="M488.1537,-735.0498C445.8041,-735.0498 394.8604,-735.0498 353.898,-735.0498"/>
<polygon fill="none" stroke="#000000" points="353.7102,-731.5499 343.7101,-735.0498 353.7101,-738.5499 353.7102,-731.5499"/>
</g>
<!-- \\PlMigration\\Helper\\PlapiClient -->
<g id="node59" class="node">
<title>\\PlMigration\\Helper\\PlapiClient</title>
<polygon fill="none" stroke="#000000" points="616.1234,-699.0498 527.898,-699.0498 527.898,-663.0498 616.1234,-663.0498 616.1234,-699.0498"/>
<text text-anchor="middle" x="572.0107" y="-677.7498" font-family="Courier,monospace" font-size="11.00" fill="#000000">PlapiClient</text>
</g>
<!-- \\PlMigration\\Helper\\LoggerTrait -->
<g id="node60" class="node">
<title>\\PlMigration\\Helper\\LoggerTrait</title>
<polygon fill="none" stroke="#000000" points="616.1234,-645.0498 527.898,-645.0498 527.898,-609.0498 616.1234,-609.0498 616.1234,-645.0498"/>
<text text-anchor="middle" x="572.0107" y="-623.7498" font-family="Courier,monospace" font-size="11.00" fill="#000000">LoggerTrait</text>
</g>
<!-- \\PlMigration\\PlayerlyncExport -->
<g id="node61" class="node">
<title>\\PlMigration\\PlayerlyncExport</title>
<polygon fill="none" stroke="#000000" points="632.6285,-537.0498 511.3929,-537.0498 511.3929,-501.0498 632.6285,-501.0498 632.6285,-537.0498"/>
<text text-anchor="middle" x="572.0107" y="-515.7498" font-family="Courier,monospace" font-size="11.00" fill="#000000">PlayerlyncExport</text>
</g>
<!-- \\PlMigration\\PlayerlyncImport -->
<g id="node62" class="node">
<title>\\PlMigration\\PlayerlyncImport</title>
<polygon fill="none" stroke="#000000" points="339.9952,-591.0498 218.7596,-591.0498 218.7596,-555.0498 339.9952,-555.0498 339.9952,-591.0498"/>
<text text-anchor="middle" x="279.3774" y="-569.7498" font-family="Courier,monospace" font-size="11.00" fill="#000000">PlayerlyncImport</text>
</g>
<!-- \\PlMigration\\PlayerlyncImportSync -->
<g id="node63" class="node">
<title>\\PlMigration\\PlayerlyncImportSync</title>
<polygon fill="none" stroke="#000000" points="646.0322,-591.0498 497.9892,-591.0498 497.9892,-555.0498 646.0322,-555.0498 646.0322,-591.0498"/>
<text text-anchor="middle" x="572.0107" y="-569.7498" font-family="Courier,monospace" font-size="11.00" fill="#000000">PlayerlyncImportSync</text>
</g>
<!-- \\PlMigration\\PlayerlyncImportSync&#45;&gt;\\PlMigration\\PlayerlyncImport -->
<g id="edge26" class="edge">
<title>\\PlMigration\\PlayerlyncImportSync&#45;&gt;\\PlMigration\\PlayerlyncImport</title>
<path fill="none" stroke="#000000" d="M497.7887,-573.0498C452.5465,-573.0498 395.0441,-573.0498 350.3982,-573.0498"/>
<polygon fill="none" stroke="#000000" points="350.2111,-569.5499 340.2111,-573.0498 350.2111,-576.5499 350.2111,-569.5499"/>
</g>
</g>
</svg>
